<svg version="1.1" viewBox="0.0 0.0 953.1102362204724 300.81627296587925" fill="none" stroke="none" stroke-linecap="square" stroke-miterlimit="10" xmlns:xlink="http://www.w3.org/1999/xlink" xmlns="http://www.w3.org/2000/svg"><clipPath id="p.0"><path d="m0 0l953.1102 0l0 300.81628l-953.1102 0l0 -300.81628z" clip-rule="nonzero"/></clipPath><g clip-path="url(#p.0)"><path fill="#000000" fill-opacity="0.0" d="m0 0l953.1102 0l0 300.81628l-953.1102 0z" fill-rule="evenodd"/><path fill="#000000" fill-opacity="0.0" d="m-249.44095 74.92388l87.71654 87.716545" fill-rule="evenodd"/><path stroke="#000000" stroke-width="1.0" stroke-linejoin="round" stroke-linecap="butt" d="m-249.44095 74.92388l83.47391 83.4739" fill-rule="evenodd"/><path fill="#000000" stroke="#000000" stroke-width="1.0" stroke-linecap="butt" d="m-167.135 159.56573l4.3768616 2.0409698l-2.0409698 -4.376877z" fill-rule="evenodd"/><path fill="#f4cccc" d="m28.850393 123.57743l148.94489 0l0 71.08662l-148.94489 0z" fill-rule="evenodd"/><path stroke="#000000" stroke-width="1.0" stroke-linejoin="round" stroke-linecap="butt" d="m28.850393 123.57743l148.94489 0l0 71.08662l-148.94489 0z" fill-rule="evenodd"/><path fill="#000000" d="m57.813866 143.00618l6.171875 0l0 16.53125q0 3.9375 0.21875 5.109375q0.40625 1.875 1.890625 3.015625q1.484375 1.125 4.0625 1.125q2.625 0 3.953125 -1.0625q1.34375 -1.078125 1.609375 -2.640625q0.28125 -1.5625 0.28125 -5.1875l0 -16.890625l6.15625 0l0 16.03125q0 5.5 -0.5 7.78125q-0.5 2.265625 -1.84375 3.828125q-1.34375 1.5625 -3.59375 2.484375q-2.25 0.921875 -5.875 0.921875q-4.375 0 -6.640625 -1.0q-2.25 -1.015625 -3.5625 -2.625q-1.3125 -1.625 -1.71875 -3.390625q-0.609375 -2.625 -0.609375 -7.75l0 -16.28125zm30.758102 30.53125l0 -30.53125l9.234375 0l5.53125 20.828125l5.484375 -20.828125l9.25 0l0 30.53125l-5.734375 0l0 -24.03125l-6.0625 24.03125l-5.9375 0l-6.03125 -24.03125l0 24.03125l-5.734375 0zm35.68924 0l0 -30.53125l5.9999924 0l12.484375 20.390625l0 -20.390625l5.734375 0l0 30.53125l-6.1875 0l-12.3125 -19.90625l0 19.90625l-5.7187424 0z" fill-rule="nonzero"/><path fill="#cfe2f3" d="m758.50397 123.57743l167.24408 0l0 71.08662l-167.24408 0z" fill-rule="evenodd"/><path stroke="#000000" stroke-width="1.0" stroke-linejoin="round" stroke-linecap="butt" d="m758.50397 123.57743l167.24408 0l0 71.08662l-167.24408 0z" fill-rule="evenodd"/><path fill="#000000" d="m797.8199 173.53743l0 -30.53125l9.890625 0q5.625 0 7.328125 0.453125q2.625 0.6875 4.390625 3.0q1.78125 2.296875 1.78125 5.9375q0 2.8125 -1.03125 4.734375q-1.015625 1.90625 -2.59375 3.0q-1.5625 1.09375 -3.1875 1.453125q-2.21875 0.4375 -6.40625 0.4375l-4.015625 0l0 11.515625l-6.15625 0zm6.15625 -25.375l0 8.671875l3.375 0q3.640625 0 4.875 -0.46875q1.234375 -0.484375 1.921875 -1.5q0.703125 -1.03125 0.703125 -2.390625q0 -1.65625 -0.984375 -2.734375q-0.96875 -1.09375 -2.46875 -1.359375q-1.109375 -0.21875 -4.4375 -0.21875l-2.984375 0zm36.81073 25.375l0 -3.3125q-1.21875 1.765625 -3.1875 2.796875q-1.96875 1.015625 -4.140625 1.015625q-2.234375 0 -4.015625 -0.96875q-1.765625 -0.984375 -2.5625 -2.75q-0.78125 -1.78125 -0.78125 -4.90625l0 -14.0l5.859375 0l0 10.171875q0 4.65625 0.3125 5.71875q0.328125 1.046875 1.171875 1.671875q0.859375 0.609375 2.171875 0.609375q1.5 0 2.6875 -0.828125q1.1875 -0.828125 1.625 -2.046875q0.4375 -1.21875 0.4375 -5.953125l0 -9.34375l5.859375 0l0 22.125l-5.4375 0zm17.103027 0l-5.859375 0l0 -22.125l5.4375 0l0 3.15625q1.390625 -2.234375 2.5 -2.9375q1.125 -0.71875 2.53125 -0.71875q2.0 0 3.859375 1.109375l-1.8125 5.109375q-1.484375 -0.96875 -2.75 -0.96875q-1.234375 0 -2.09375 0.6875q-0.84375 0.671875 -1.328125 2.453125q-0.484375 1.765625 -0.484375 7.40625l0 6.828125zm23.803223 -7.046875l5.828125 0.984375q-1.125 3.203125 -3.5625 4.890625q-2.421875 1.671875 -6.0625 1.671875q-5.765625 0 -8.53125 -3.765625q-2.1875 -3.03125 -2.1875 -7.625q0 -5.5 2.875 -8.609375q2.875 -3.125 7.265625 -3.125q4.9375 0 7.78125 3.265625q2.859375 3.265625 2.734375 9.984375l-14.65625 0q0.0625 2.609375 1.40625 4.0625q1.359375 1.4375 3.375 1.4375q1.375 0 2.3125 -0.75q0.9375 -0.75 1.421875 -2.421875zm0.328125 -5.90625q-0.0625 -2.546875 -1.3125 -3.859375q-1.25 -1.328125 -3.046875 -1.328125q-1.90625 0 -3.15625 1.390625q-1.25 1.40625 -1.234375 3.796875l8.75 0z" fill-rule="nonzero"/><path fill="#000000" fill-opacity="0.0" d="m196.32283 123.57743l543.65356 1.826767" fill-rule="evenodd"/><path stroke="#000000" stroke-width="8.0" stroke-linejoin="round" stroke-linecap="butt" d="m196.32283 123.57743l495.6538 1.6654816" fill-rule="evenodd"/><path fill="#000000" stroke="#000000" stroke-width="8.0" stroke-linecap="butt" d="m691.93225 138.4567l36.349 -13.091797l-36.260193 -13.33577z" fill-rule="evenodd"/><path fill="#000000" fill-opacity="0.0" d="m731.42255 194.66405l-543.6535 1.826767" fill-rule="evenodd"/><path stroke="#000000" stroke-width="8.0" stroke-linejoin="round" stroke-linecap="butt" d="m731.42255 194.66405l-495.65378 1.6654663" fill-rule="evenodd"/><path fill="#000000" stroke="#000000" stroke-width="8.0" stroke-linecap="butt" d="m235.72435 183.11574l-36.260162 13.335785l36.34897 13.091782z" fill-rule="evenodd"/><path fill="#000000" fill-opacity="0.0" d="m403.67453 55.90551l111.84256 0l0 54.92914l-111.84256 0z" fill-rule="evenodd"/><path fill="#000000" d="m429.56924 93.06551l8.125 -10.9375l-7.15625 -10.0625l3.296875 0l3.8125 5.390625q1.1875 1.671875 1.6875 2.578125q0.703125 -1.140625 1.671875 -2.390625l4.21875 -5.578125l3.015625 0l-7.375 9.90625l7.953125 11.09375l-3.4375 0l-5.28125 -7.484375q-0.453125 -0.65625 -0.921875 -1.40625q-0.703125 1.140625 -1.0 1.578125l-5.265625 7.3125l-3.34375 0zm21.60852 0l0 -21.0l4.1875 0l4.96875 14.875q0.6875 2.078125 1.0 3.109375q0.359375 -1.15625 1.125 -3.375l5.015625 -14.609375l3.734375 0l0 21.0l-2.671875 0l0 -17.578125l-6.09375 17.578125l-2.515625 0l-6.0625 -17.875l0 17.875l-2.6875 0zm24.399292 0l0 -21.0l2.78125 0l0 18.515625l10.34375 0l0 2.484375l-13.125 0z" fill-rule="nonzero"/><path fill="#000000" fill-opacity="0.0" d="m388.95013 210.24934l141.29132 0l0 51.716537l-141.29132 0z" fill-rule="evenodd"/><path fill="#000000" d="m424.81543 240.28574l2.28125 -0.3125q0.09375 2.1875 0.8125 3.0q0.734375 0.8125 2.03125 0.8125q0.9375 0 1.625 -0.4375q0.703125 -0.4375 0.953125 -1.1875q0.265625 -0.75 0.265625 -2.390625l0 -13.140625l2.53125 0l0 13.0q0 2.390625 -0.59375 3.71875q-0.578125 1.3125 -1.828125 2.0q-1.25 0.6875 -2.953125 0.6875q-2.5 0 -3.84375 -1.4375q-1.328125 -1.453125 -1.28125 -4.3125zm13.765625 -0.703125l2.375 -0.21875q0.171875 1.4375 0.78125 2.359375q0.625 0.90625 1.921875 1.484375q1.3125 0.5625 2.9375 0.5625q1.4375 0 2.546875 -0.421875q1.109375 -0.4375 1.640625 -1.1875q0.546875 -0.75 0.546875 -1.640625q0 -0.890625 -0.53125 -1.5625q-0.515625 -0.671875 -1.703125 -1.125q-0.765625 -0.296875 -3.40625 -0.921875q-2.625 -0.640625 -3.671875 -1.203125q-1.375 -0.71875 -2.046875 -1.765625q-0.671875 -1.0625 -0.671875 -2.375q0 -1.453125 0.8125 -2.703125q0.828125 -1.265625 2.40625 -1.90625q1.578125 -0.65625 3.5 -0.65625q2.125 0 3.734375 0.6875q1.625 0.671875 2.5 2.0q0.875 1.328125 0.9375 3.015625l-2.421875 0.1875q-0.1875 -1.8125 -1.3125 -2.734375q-1.125 -0.9375 -3.328125 -0.9375q-2.296875 0 -3.34375 0.84375q-1.046875 0.84375 -1.046875 2.03125q0 1.015625 0.75 1.6875q0.71875 0.65625 3.796875 1.359375q3.078125 0.703125 4.234375 1.21875q1.65625 0.765625 2.453125 1.953125q0.796875 1.171875 0.796875 2.703125q0 1.53125 -0.875 2.875q-0.875 1.34375 -2.515625 2.09375q-1.625 0.75 -3.671875 0.75q-2.59375 0 -4.34375 -0.75q-1.75 -0.765625 -2.75 -2.28125q-0.984375 -1.515625 -1.03125 -3.421875zm17.857635 -3.171875q0 -4.75 2.546875 -7.4375q2.5625 -2.6875 6.59375 -2.6875q2.640625 0 4.765625 1.265625q2.125 1.265625 3.234375 3.53125q1.109375 2.25 1.109375 5.109375q0 2.90625 -1.171875 5.203125q-1.171875 2.28125 -3.3125 3.46875q-2.140625 1.171875 -4.640625 1.171875q-2.6875 0 -4.8125 -1.296875q-2.125 -1.3125 -3.21875 -3.5625q-1.09375 -2.25 -1.09375 -4.765625zm2.609375 0.046875q0 3.4375 1.84375 5.4375q1.859375 1.984375 4.671875 1.984375q2.84375 0 4.6875 -2.0q1.84375 -2.015625 1.84375 -5.703125q0 -2.328125 -0.796875 -4.0625q-0.78125 -1.734375 -2.296875 -2.6875q-1.515625 -0.96875 -3.40625 -0.96875q-2.6875 0 -4.625 1.84375q-1.921875 1.84375 -1.921875 6.15625zm18.874695 9.25l0 -19.078125l2.59375 0l10.015625 14.984375l0 -14.984375l2.421875 0l0 19.078125l-2.59375 0l-10.015625 -15.0l0 15.0l-2.421875 0z" fill-rule="nonzero"/></g></svg>